<svg width="85" height="85" viewBox="0 0 85 85" fill="none" xmlns="http://www.w3.org/2000/svg">
<path d="M39.8126 0.0266067C36.8951 0.284038 35.1016 0.541469 33.0422 1.01343C21.6895 3.61348 11.9157 10.7443 5.90036 20.8185C4.4759 23.204 2.83692 26.8424 1.97024 29.5368C1.26659 31.7421 0.597273 34.7798 0.305517 37.131C-0.200764 41.1555 -0.0720485 46.1754 0.648759 50.0798C2.01314 57.5196 5.26536 64.3415 10.1737 70.0994C11.3407 71.4638 13.8207 73.918 15.185 75.0592C24.2809 82.6363 35.8053 86.0773 47.4927 84.7043C63.8138 82.7993 77.6293 71.5238 82.8465 55.8806C83.902 52.7314 84.537 49.6164 84.8717 46.0553C85.009 44.5622 85.0175 40.3318 84.8717 38.8901C84.005 29.8114 80.7785 22.0284 75.0035 15.0778C73.948 13.7992 71.2021 11.0618 69.8892 9.97203C63.196 4.39436 55.6103 1.1593 46.9606 0.181065C45.8365 0.0523498 40.7565 -0.0506227 39.8126 0.0266067ZM46.6346 9.5344C56.0909 10.8645 64.0197 15.6269 69.5202 23.2726C72.7552 27.7691 74.7804 33.0379 75.484 38.7614C75.6985 40.5034 75.69 44.3992 75.484 46.1411C74.5315 53.8469 71.2965 60.5487 65.9333 65.9118C61.4454 70.3997 55.8334 73.4889 49.6637 74.879C44.6952 75.9946 39.1261 75.9002 34.235 74.613C28.3741 73.077 23.3799 70.2109 19.0808 65.9204C15.3395 62.1877 12.6622 57.8714 11.0147 52.9373C9.39284 48.089 8.92946 42.8632 9.65885 37.6888C10.9803 28.3612 16.4465 19.8746 24.5041 14.623C28.9319 11.7397 34.0462 9.95487 39.4265 9.42285C40.6965 9.29413 45.4418 9.37136 46.6346 9.5344Z" fill="white"/>
<path d="M30.8468 19.3339C27.9378 19.6772 25.2262 20.6897 22.9952 22.2686C21.5621 23.2812 18.6961 26.3446 18.9449 26.5935C19.005 26.6535 19.5971 27.0654 22.0684 28.7645C22.7549 29.2279 26.5992 31.7249 26.6335 31.7249C26.6507 31.7249 26.848 31.4933 27.0711 31.2015C27.9293 30.1031 29.4052 29.1678 30.8382 28.8074C31.7478 28.5757 33.0865 28.5757 34.0304 28.8074C34.8027 28.9876 35 29.0734 37.111 30.0945C37.9176 30.4807 38.9988 31.0041 39.5137 31.253C40.0371 31.5018 41.3929 32.1454 42.5342 32.6946C45.5547 34.1362 46.7561 34.5567 48.7898 34.857C49.9568 35.0286 52.1793 35.0372 53.3892 34.8656C56.3411 34.4451 59.1299 33.2352 61.3953 31.3817C62.1933 30.7295 63.6006 29.2622 64.1927 28.4641C64.7248 27.7605 65.4713 26.5592 65.4713 26.4219C65.4713 26.379 64.7248 25.9413 63.8237 25.4608C62.9142 24.9717 61.8415 24.3967 61.4382 24.1822C61.0349 23.9763 59.9365 23.3842 59.0012 22.8779L57.2936 21.9597L56.9589 22.4746C56.0064 23.9419 54.5391 25.006 52.8143 25.4694C51.8532 25.7268 50.4202 25.7354 49.4591 25.4779C48.6439 25.2634 48.7297 25.2977 42.989 22.5432C41.7876 21.9683 40.3203 21.2647 39.7282 20.9815C37.9691 20.132 36.1756 19.5999 34.3221 19.3682C33.6528 19.291 31.4561 19.2653 30.8468 19.3339Z" fill="white"/>
<path d="M37.8398 54.336V69.739H42.5165H47.1932V54.336V38.933H42.5165H37.8398V54.336Z" fill="white"/>
</svg>
