<svg width="65" height="65" viewBox="0 0 65 65" fill="none" xmlns="http://www.w3.org/2000/svg">
<path d="M28.0258 0.309426C26.7238 0.51287 25.5845 0.736659 25.4624 0.797693C25.1776 0.960448 25.3404 32.2502 25.6252 33.8778C26.0117 36.197 27.4155 37.9874 29.633 39.0453C30.8334 39.5946 31.0368 39.6353 32.7864 39.5539C35.004 39.4522 35.9398 39.0453 37.4453 37.5398C38.9508 36.0343 39.3373 35.0171 39.3373 32.6775C39.3373 30.3989 38.9711 29.402 37.5877 27.8965C36.6315 26.8589 35.5736 26.2283 34.1495 25.8621L33.234 25.6383L33.173 22.9732C33.1119 19.6773 33.1526 19.6163 35.1464 20.1249C39.8459 21.3456 43.4876 24.7838 44.8507 29.3206C45.4407 31.2533 45.339 34.5491 44.6676 36.665C43.7928 39.3301 41.4939 42.1783 39.1135 43.5821C38.6456 43.8466 37.5063 44.3755 36.5705 44.7214C34.9836 45.3317 34.6785 45.3724 32.3185 45.3724C29.9179 45.3724 29.6941 45.3317 28.1479 44.7214C24.2418 43.1142 21.658 40.4694 20.3967 36.7463C19.5829 34.3254 19.4201 32.1892 19.6236 26.0655C19.8067 20.5725 19.7863 2.99489 19.6032 2.79145C19.5422 2.75076 19.0743 2.91352 18.525 3.15765L17.5688 3.60523L17.5891 19.006C17.5891 35.1798 17.6095 35.485 18.525 37.9467C19.6032 40.8152 22.187 43.8669 24.8928 45.4538C28.2089 47.3865 32.2168 48.0172 35.8584 47.1424C39.5815 46.2472 42.9993 43.8873 45.1152 40.7135C48.1465 36.1564 48.3499 30.6634 45.6848 25.4552C44.6676 23.4818 42.0635 20.7759 40.0494 19.596C38.7067 18.8229 36.4077 18.0294 34.3123 17.6226L33.1323 17.3988V14.7947C33.1323 11.5396 33.1323 11.5396 35.3295 11.9058C39.8663 12.6585 43.3655 14.4488 46.7427 17.7039C51.605 22.4035 53.4767 27.0014 53.2123 33.5523C53.0902 36.665 52.6426 38.618 51.4423 41.1814C49.8554 44.5586 47.3734 47.5899 44.5048 49.6244C42.6942 50.9061 39.7442 52.2692 37.5063 52.8592C34.8616 53.5305 30.1416 53.5305 27.6393 52.8592C25.3404 52.2285 23.0821 51.2316 21.2715 50.0516C19.1353 48.6479 15.7581 45.1486 14.5985 43.1549C13.3982 41.0797 12.4827 38.8215 12.1978 37.255C12.0554 36.5022 11.8927 30.5006 11.7706 21.9152C11.6485 14.1437 11.5265 7.7555 11.4858 7.71481C11.3434 7.5724 7.41689 11.8447 6.29795 13.3299C2.9818 17.8057 1.04908 22.7087 0.275989 28.5475C-0.741234 36.2988 1.06942 44.0297 5.44348 50.6213C10.021 57.5384 16.5109 62.1566 24.5876 64.2521C26.7238 64.8217 27.2934 64.8827 31.1182 64.9641C36.245 65.1065 38.6456 64.842 41.738 63.8655C49.1637 61.5259 55.4705 56.9077 59.4987 50.8654C61.879 47.2848 64.1372 41.629 64.6458 37.8856C64.9917 35.485 64.9307 28.9951 64.5645 26.8589C63.8931 23.0749 61.818 18.0091 59.519 14.5709C55.8163 9.0372 50.6692 4.80555 44.81 2.48628C39.2967 0.309426 33.1119 -0.504352 28.0258 0.309426Z" fill="white"/>
</svg>
