<svg width="85" height="85" viewBox="0 0 85 85" fill="none" xmlns="http://www.w3.org/2000/svg">
<path d="M0 42.5V85H42.5H85L84.8924 42.6076L84.731 0.268987L42.3924 0.107595L0 -2.98023e-07V42.5ZM77.3608 42.6076L77.1994 77.1994L42.3924 77.3608L7.53165 77.4684V42.769V8.06962H42.5H77.4684L77.3608 42.6076Z" fill="white"/>
<path d="M23.5133 23.5095C23.2981 23.6709 23.1367 32.3861 23.1367 42.8766V61.8671H26.9025H30.6684V42.5V23.1329H27.2791C25.3962 23.1329 23.6747 23.2943 23.5133 23.5095Z" fill="white"/>
<path d="M38.7344 27.1677V31.2025H50.3008H61.9211L61.7597 27.2753L61.5983 23.4019L50.1932 23.2405L38.7344 23.1329V27.1677Z" fill="white"/>
<path d="M38.7344 42.5V46.2658H50.3008H61.8673V42.5V38.7342H50.3008H38.7344V42.5Z" fill="white"/>
<path d="M38.7344 58.1012V61.8671H50.3008H61.8673V58.1012V54.3354H50.3008H38.7344V58.1012Z" fill="white"/>
</svg>
