<svg width="92" height="85" viewBox="0 0 92 85" fill="none" xmlns="http://www.w3.org/2000/svg">
<path d="M3.2394 0.531832C-0.818468 1.60855 -0.879033 2.52375 2.02809 21.0432C3.2394 28.5264 4.69296 38.163 5.35917 42.4698C6.02539 46.7767 6.99443 53.0754 7.53952 56.4671C8.08461 59.8587 8.87195 65.0808 9.29591 67.9879C9.90156 71.8641 10.4466 73.5868 11.2946 74.3944C12.5664 75.4711 43.6969 85 46.1195 85C48.1787 85 78.5218 75.7941 80.1571 74.6636C81.7318 73.5868 81.8529 73.0485 84.3967 56.1979C85.2446 50.5452 86.3347 43.5465 86.8193 40.5856C87.3038 37.6246 88.2728 31.4335 88.939 26.8575C89.6053 22.2814 90.5743 16.198 91.0588 13.3447C92.0884 7.26129 92.2096 3.49279 91.3617 2.09307C90.9983 1.50087 89.7264 0.80101 88.4545 0.477996C85.6685 -0.168032 5.90426 -0.168032 3.2394 0.531832ZM81.0656 10.0069C81.0656 10.5453 80.5205 14.4753 79.7937 18.7821C79.1275 23.089 77.1288 35.848 75.3725 47.1535C73.6161 58.5128 72.1019 67.8264 71.9202 67.9341C71.7991 67.9879 65.9243 69.8183 58.8382 71.9179L45.9984 75.6864L33.098 71.8641C26.0119 69.7645 20.0159 67.8264 19.8342 67.5572C19.592 67.3419 19.2286 65.6192 19.0469 63.7887C18.8046 62.0122 17.6539 54.4213 16.5032 47.0459C13.7172 29.2801 11.5974 15.3905 11.1129 11.8912L10.6889 9.0917H45.8772C79.0064 9.0917 81.0656 9.14554 81.0656 10.0069Z" fill="url(#paint0_linear_637_95)"/>
<path d="M26.7429 18.6207C23.109 19.2667 21.716 24.0581 24.502 26.373C26.0162 27.6112 26.3795 27.6651 37.9475 27.9343L49.8182 28.2034L43.035 33.5332C35.5854 39.4013 34.4953 41.124 36.4939 43.8158C38.008 45.8615 39.825 46.2384 48.0013 46.2384H55.4508L54.7846 50.1146L54.1184 53.9369L51.0901 54.9059C49.4549 55.4443 47.2745 55.875 46.3055 55.875C43.4589 55.9288 38.008 54.2061 37.039 52.914C36.5545 52.268 35.4037 51.4604 34.4347 51.0836C30.8008 49.7377 26.6824 52.914 27.5303 56.3057C28.681 61.097 29.0444 61.3124 39.1588 64.0042L46.0026 65.7807L52.7859 64.0042C61.2651 61.7431 62.5369 61.2047 63.3848 59.3205C63.9905 57.9207 66.5342 43.0082 66.5342 40.6933C66.5342 40.155 65.868 39.1321 65.0201 38.4322C63.7482 37.2478 63.0214 37.0863 59.2664 37.0863C56.9649 37.0863 55.0268 36.871 55.0268 36.6556C55.0268 36.3865 56.6015 35.0406 58.5396 33.587C67.2004 26.9652 68.9568 25.1886 68.9568 23.089C68.9568 21.6893 68.5329 20.7741 67.3821 19.8051L65.8074 18.513L46.9717 18.4592C36.5545 18.4053 27.4697 18.4592 26.7429 18.6207Z" fill="url(#paint1_linear_637_95)"/>
<defs>
<linearGradient id="paint0_linear_637_95" x1="45.9616" y1="85" x2="45.9616" y2="0" gradientUnits="userSpaceOnUse">
<stop stop-color="white"/>
<stop offset="0.312569" stop-color="#1FD1F9"/>
<stop offset="0.666742" stop-color="#B621FE"/>
<stop offset="1" stop-color="white"/>
</linearGradient>
<linearGradient id="paint1_linear_637_95" x1="45.9921" y1="65.7807" x2="45.9921" y2="18.439" gradientUnits="userSpaceOnUse">
<stop stop-color="white"/>
<stop offset="0.312569" stop-color="#1FD1F9"/>
<stop offset="0.666742" stop-color="#B621FE"/>
<stop offset="1" stop-color="white"/>
</linearGradient>
</defs>
</svg>
