<svg width="59" height="85" viewBox="0 0 59 85" fill="none" xmlns="http://www.w3.org/2000/svg">
<path d="M13.1424 0.358384C8.05853 1.11556 3.24505 4.90145 1.0276 9.76902C-0.216336 12.5814 -0.324505 18.6929 0.865346 22.1543C1.29802 23.5064 2.75829 25.7238 4.00222 27.0759L6.27376 29.5638L4.48898 31.2945C3.46138 32.268 2.0552 34.3232 1.29802 35.8916C0.0540841 38.3795 -0.108168 39.2449 0.108168 43.193C0.324505 48.331 1.29802 50.8188 4.32673 53.9557L6.27376 56.065L4.48898 57.7957C1.51435 60.6622 0 64.3399 0 68.6666C0 70.7218 0.27042 73.3719 0.594925 74.4536C1.56844 77.6446 4.81348 81.4845 8.11261 83.3234C10.8168 84.8377 11.5199 85 15.9548 85C20.2815 85 21.0928 84.8377 23.3643 83.5397C26.8257 81.4845 29.1513 78.9967 30.6116 75.8057C31.8015 73.3178 31.9096 72.3984 31.9096 64.2858C31.9096 59.4723 32.0178 55.5242 32.126 55.5242C32.2341 55.5242 33.4781 56.1732 34.9383 56.9844C37.2639 58.3365 38.1293 58.4988 42.456 58.4988C46.4042 58.4988 47.7563 58.2825 49.487 57.3089C57.4914 53.0363 60.6824 43.7879 56.8424 35.7835C55.977 33.9987 54.5709 31.8353 53.6514 30.97L52.0289 29.4556L53.9218 27.5086C60.1415 21.2889 59.817 9.98535 53.2728 4.19835C48.7839 0.3043 47.9726 0.142047 31.0984 0.0338792C22.7694 -0.074289 14.7109 0.0879633 13.1424 0.358384ZM25.9604 16.0969V26.4269L18.9835 26.2106C12.0608 26.0483 11.9526 26.0483 9.89739 24.3717C6.97685 21.992 5.73291 19.6123 5.73291 16.3132C5.787 11.5538 8.65346 7.71382 13.4129 6.30763C14.2241 6.03721 17.361 5.82088 20.4438 5.82088L25.9604 5.76679V16.0969ZM45.0521 6.36172C47.5399 7.01073 51.0013 10.0394 51.9207 12.2569C52.2993 13.2304 52.5157 15.2315 52.3534 17.1245C52.1912 19.6664 51.8126 20.7481 50.5145 22.3165C47.7563 25.7779 46.0797 26.3188 38.562 26.3188H31.9096V16.4214C31.9096 10.9589 32.0719 6.30763 32.2882 6.14538C32.829 5.55046 42.7805 5.71271 45.0521 6.36172ZM25.9604 42.5981V52.9281L18.9835 52.7118C12.0608 52.5495 11.9526 52.5495 9.89739 50.8729C6.97685 48.4932 5.73291 46.1135 5.73291 42.8144C5.73291 38.704 7.62586 35.6212 11.3036 33.7283C14.0078 32.4303 14.819 32.268 20.1193 32.268H25.9604V42.5981ZM45.0521 32.8629C47.5399 33.5119 51.0013 36.5406 51.9207 38.7581C52.2993 39.6775 52.5157 41.7327 52.3534 43.5716C52.083 47.5197 50.19 50.278 46.6205 51.8464C37.4262 55.9568 28.6646 46.1676 33.7485 37.4601C34.8842 35.459 35.9118 34.5936 38.0211 33.566C41.158 32.1058 42.0774 32.0517 45.0521 32.8629ZM25.9604 65.3675C25.9604 71.2626 25.7981 72.2902 24.7164 74.1832C22.499 78.0772 18.6049 79.8079 13.7374 79.0507C8.92388 78.3477 4.81348 72.5607 5.67883 67.8013C6.32784 64.3399 8.22078 61.852 11.3036 60.2295C14.0078 58.9315 14.819 58.7692 20.1193 58.7692H25.9604V65.3675Z" fill="white"/>
</svg>
