<svg width="76" height="85" viewBox="0 0 76 85" fill="none" xmlns="http://www.w3.org/2000/svg">
<path d="M62.078 21.3614L62.0781 21.3599C62.1325 19.2366 62.1873 16.8846 62.1877 16.0471L62.2421 14.5783L62.2612 14.0626L61.7451 14.0598L51.3452 14.0051L51.3426 14.0051C45.6465 14.0051 34.8058 14.1146 27.2486 14.2789C27.2483 14.2789 27.2481 14.2789 27.2478 14.2789M62.078 21.3614L27.2586 14.7788L27.2478 14.2789M62.078 21.3614L61.9686 25.1929L61.9547 25.6787H61.4688H42.8585H24.8203L25.0168 27.1332C25.0169 27.1338 25.017 27.1344 25.017 27.1349C25.1826 28.2939 25.3986 29.8031 25.5581 30.5475L25.5617 30.5644L25.5642 30.5816C25.6746 31.3545 25.7869 32.5218 25.7881 33.2138L25.8214 33.9793L42.7443 33.8196L42.7458 33.8196L60.0972 33.7101L60.6209 33.7068L60.6 34.2301L60.5452 35.5985L60.5453 35.5985L60.5448 35.6071C59.9976 45.1839 59.0113 56.9745 58.5147 60.2305L58.5141 60.2341L57.8573 64.3393L57.8067 64.6555L57.4984 64.7418L52.0247 66.2744L52.0215 66.2753C49.0145 67.0954 44.8615 68.2977 42.7901 68.9518L42.7875 68.9526C40.829 69.5595 39.4236 69.8671 37.9154 69.8163C36.4165 69.7659 34.8537 69.3624 32.5791 68.6226C31.6997 68.3428 29.8143 67.8262 27.8489 67.2877C27.1494 67.096 26.4398 66.9016 25.7618 66.7141C23.2034 66.0608 20.3509 65.2934 19.3374 64.9567L17.6499 64.4668L17.3119 64.3687L17.2902 64.0175L16.962 58.7115C16.7426 55.8049 16.4701 52.374 16.3079 51.0762L16.3075 51.0733L16.0338 48.7743L15.9673 48.2152H16.5303H21.4566H26.3829H26.8231L26.8788 48.6519L27.2072 51.2245L27.2073 51.225C27.4832 53.4042 27.6698 54.5796 27.8967 55.2541C28.0065 55.5804 28.1119 55.7438 28.2067 55.8401C28.2958 55.9306 28.4095 55.9967 28.6101 56.0645C32.6059 57.1866 34.9736 57.8216 36.4716 58.1038C37.9811 58.3881 38.4784 58.2845 38.8311 58.0803L38.8444 58.0726L38.8581 58.0658C39.5566 57.7165 40.7575 57.315 41.5835 57.197L41.5882 57.1964C42.3767 57.0912 44.0483 56.7149 45.3048 56.3871C45.9519 56.2183 46.3554 56.1034 46.6543 55.9297C46.9169 55.7771 47.112 55.5696 47.2807 55.1562C47.4601 54.7167 47.6011 54.0648 47.7372 53.041C47.8724 52.0247 47.998 50.6851 48.1625 48.8898C48.1625 48.8894 48.1625 48.889 48.1626 48.8886L48.4468 45.5256L41.1407 45.2191L41.1363 45.2188C36.8221 45.0004 29.3866 44.8363 24.686 44.8363C22.1896 44.8363 20.0173 44.7815 18.4652 44.6918C17.6911 44.6471 17.0611 44.5932 16.6193 44.5313C16.4018 44.5009 16.2102 44.4659 16.0646 44.4233C15.9956 44.4032 15.9068 44.3729 15.8252 44.3245C15.7828 44.2993 15.5377 44.1534 15.5377 43.8437C15.5377 43.846 15.5371 43.8253 15.5331 43.7628C15.5295 43.7075 15.5241 43.6317 15.5169 43.5358C15.5025 43.3443 15.4812 43.0772 15.4538 42.7427C15.3992 42.0738 15.3206 41.1388 15.2248 40.0064C15.1821 39.5026 15.1361 38.9597 15.0873 38.3839C14.9168 36.3728 14.7124 33.9604 14.4996 31.4074C14.0647 26.6631 13.6574 22.0218 13.4241 19.3635C13.3347 18.3452 13.2709 17.6179 13.2408 17.2872L13.2408 17.2872L13.2402 17.2793L13.076 15.0899L13.0365 14.5631L13.5646 14.5526L27.2478 14.2789M62.078 21.3614L27.2478 14.2789M0.8811 4.16943L0.88121 4.16941L0.881941 4.17989C1.04582 6.52885 1.31882 9.53043 1.48169 10.8877C1.60272 11.8963 1.81141 14.4571 2.04275 17.2958C2.12803 18.3422 2.21639 19.4264 2.30461 20.4846L2.30506 20.491C2.57832 24.3712 3.17996 31.2631 3.61763 35.804C4.05566 40.2938 4.54872 45.8813 4.71336 48.1314C4.87712 50.3694 5.36925 55.8928 5.80708 60.4353C5.82502 60.6192 5.84314 60.8049 5.86142 60.9922C6.28868 65.3705 6.79923 70.6023 6.95745 72.8162L7.25739 76.5654L9.21289 77.0775L9.22239 77.08L9.23179 77.0829C10.4829 77.4637 17.3164 79.3771 24.4363 81.3488L24.4368 81.3489C24.9545 81.4928 25.4519 81.6313 25.9302 81.7645C32.0303 83.4629 35.01 84.2925 37.2927 84.4657C39.5422 84.6364 41.0949 84.1687 44.4266 83.1651C44.6674 83.0925 44.9176 83.0172 45.1779 82.9391L45.1779 82.939L45.1842 82.9372C49.0167 81.8422 59.202 78.9947 64.0244 77.7343L64.0244 77.7342L64.0324 77.7323C65.1459 77.4607 66.1777 77.1756 66.95 76.9452C67.3364 76.83 67.6553 76.7292 67.8855 76.6514C67.9539 76.6283 68.0132 76.6076 68.0633 76.5895C68.0699 76.5558 68.077 76.5168 68.0847 76.4719C68.1244 76.2409 68.1734 75.8884 68.2343 75.3814C68.3558 74.3695 68.5212 72.7686 68.7504 70.3504C69.2085 65.5158 69.9199 57.4307 71.042 44.2938L71.0421 44.293C73.1216 20.3791 73.5602 15.499 74.1629 9.96478C74.436 7.23309 74.6528 3.8606 74.6528 2.51787V0.5H37.6038H0.547516L0.8811 4.16943Z" fill="white" stroke="black"/>
</svg>
