<svg width="78" height="85" viewBox="0 0 78 85" fill="none" xmlns="http://www.w3.org/2000/svg">
<path fill-rule="evenodd" clip-rule="evenodd" d="M30.5059 4.62851C25.8034 7.17412 17.0159 11.955 10.978 15.2529L0 21.2485V42.6043V63.9597L6.13476 67.3145L12.2695 70.6692L15.5949 67.3697C18.072 64.9119 19.184 63.5348 19.9538 61.9714L20.9873 59.8727L21.0813 42.3563L21.1749 24.84H24.7137H28.2522L28.3003 33.3156C28.3975 50.346 28.2209 59.1307 27.7382 61.2791C26.9519 64.7779 25.4851 67.2754 22.1981 70.7125C20.5553 72.4302 19.2115 73.9691 19.2115 74.1321C19.2115 74.4573 38.4498 85.0058 39.0319 85C39.2299 84.9981 42.8061 83.1308 46.9793 80.8506C51.1526 78.5704 55.6626 76.1143 57.0013 75.3923C58.3403 74.6704 63.5348 71.8387 68.5443 69.1L77.6531 64.1205V42.5827V21.0451L59.9753 11.431C50.2524 6.14315 41.5682 1.40809 40.6767 0.908267L39.0555 0L30.5059 4.62851ZM58.9512 25.2084C61.3964 25.941 63.7692 28.8311 63.7692 31.0768V31.9434H53.1141H42.459V35.4951V39.0468H50.09C58.5301 39.0468 59.5346 39.2072 61.4735 40.8672C63.4492 42.5581 63.7728 43.7786 63.7996 49.6367C63.8138 52.7418 63.6785 55.0814 63.4509 55.6739C62.7844 57.4075 61.4516 58.8046 59.697 59.6079C57.9887 60.3899 57.9212 60.3945 49.1688 60.2953C39.451 60.1852 39.3177 60.1597 37.3129 58.0164C36.4124 57.0539 35.3556 54.7127 35.3556 53.6804C35.3556 53.3353 37.393 53.2536 46.0107 53.2536H56.6658V49.7019V46.1502L48.9974 46.1518C42.5116 46.1531 41.08 46.0659 39.7145 45.5868C38.8266 45.2752 38.0423 44.8832 37.9716 44.7156C37.9012 44.548 37.5189 44.0866 37.1221 43.6898C35.8041 42.3718 35.3556 40.2921 35.3556 35.4951C35.3556 30.4523 35.7637 28.7659 37.3881 27.1005C39.4294 25.0075 40.0684 24.8881 49.3635 24.8629C54.7576 24.848 58.1572 24.9707 58.9512 25.2084Z" fill="white"/>
</svg>
