<svg width="168" height="85" viewBox="0 0 168 85" fill="none" xmlns="http://www.w3.org/2000/svg">
<path fill-rule="evenodd" clip-rule="evenodd" d="M108.168 1.42904C108.325 2.47311 108.272 2.92831 107.972 3.11833C107.685 3.30035 107.793 3.38012 108.332 3.38412C110.825 3.40229 121.945 6.09006 127.889 8.11105C133.516 10.0242 136.227 11.1496 140.747 13.4478C172.922 29.8085 171.365 55.8457 137.282 71.4013C109.157 84.238 66.2223 85.292 35.4538 73.9012C25.3714 70.1684 17.6256 65.6383 11.821 60.0795C9.7055 58.0533 6.08146 53.5894 6.08146 53.0095C6.08146 52.8401 5.92131 52.6026 5.72574 52.4819C5.49229 52.3374 5.44702 52.4101 5.59423 52.6944C5.98845 53.4563 3.65301 50.7446 1.72257 48.1994C0.0141907 45.9468 -0.12779 45.8279 0.0665476 46.8135C0.663727 49.84 2.96282 54.5405 5.38819 57.6927C10.3489 64.1403 19.2561 70.5254 29.2714 74.8131C45.1587 81.6149 63.1397 85 83.3853 85C114.998 85 142.934 76.2388 157.484 61.7611C164.379 54.9005 167.146 49.1209 167.146 41.5777C167.146 34.0303 164.375 28.2445 157.484 21.4021C147.679 11.6658 132.865 4.87168 112.546 0.792441C110.375 0.356645 108.454 0 108.276 0C108.067 0 108.029 0.502013 108.168 1.42904ZM75.544 10.7594C75.4002 10.9922 67.1937 52.2897 66.9719 53.8971C66.9177 54.2907 67.615 54.359 71.6757 54.359H76.4436L78.9133 41.8857L81.3834 29.4124L85.499 29.3262C92.6697 29.1762 94.4871 29.8996 94.4591 32.8945C94.4517 33.6897 93.5669 38.7751 92.4923 44.1956C91.4181 49.6161 90.6007 54.1552 90.6761 54.2821C90.8699 54.6082 99.9443 54.5709 100.147 54.2432C100.472 53.7166 104.636 32.0327 104.636 30.8652C104.636 28.745 103.747 26.4299 102.464 25.206C100.12 22.9712 96.2571 22.1748 87.7614 22.1748C83.1118 22.1748 82.74 22.1335 82.8876 21.6358C83.1149 20.8702 84.9252 11.2731 84.9252 10.8352C84.9252 10.387 75.8197 10.3134 75.544 10.7594ZM34.297 22.7138C34.2087 23.0104 32.3182 32.5384 30.0961 43.8876C27.8737 55.2368 25.9803 64.8379 25.8885 65.2235L25.7216 65.9244L30.6071 65.8394L35.4926 65.7544L36.5533 60.1337L37.614 54.513H42.5676C53.3889 54.513 57.8815 53.1065 62.4932 48.2748C67.4049 43.1291 69.2633 34.5295 66.6639 28.9751C65.7699 27.0643 63.5641 24.9226 61.4701 23.9321C58.4057 22.4825 55.4188 22.1748 44.4057 22.1748C35.1976 22.1748 34.4455 22.2148 34.297 22.7138ZM109.724 22.5333C109.53 23.0686 101.248 65.1197 101.248 65.5675C101.248 65.8022 102.729 65.9084 105.996 65.9084H110.745L111.053 64.4455C111.222 63.641 111.735 61.095 112.192 58.7878L113.023 54.5928L119.532 54.4376C129.727 54.1946 132.681 53.2352 137.319 48.6614C140.351 45.6708 141.894 42.9221 142.711 39.0551C143.445 35.5832 143.193 31.3995 142.116 29.199C140.561 26.0215 138.023 24.0544 133.977 22.8909C131.544 22.1914 109.963 21.8733 109.724 22.5333ZM54.8808 30.1824C57.2095 31.3589 57.6714 32.196 57.6554 35.2102C57.6317 39.6796 55.9002 43.6957 53.2171 45.5039C51.2925 46.8008 49.3503 47.1904 44.0081 47.3515C39.1946 47.4966 38.9784 47.4778 39.1429 46.9274C39.2374 46.6105 40.0194 42.6788 40.8805 38.1899C41.7416 33.7011 42.5113 29.8414 42.5907 29.6129C42.7065 29.2803 43.794 29.219 48.0463 29.3049C52.9848 29.405 53.4638 29.4663 54.8808 30.1824ZM130.347 30.1824C132.497 31.2609 133.086 32.3958 133.045 35.3836C133.006 38.2189 132.125 41.2414 130.735 43.3095C128.711 46.3198 125.463 47.4149 118.536 47.4242C114.432 47.4294 114.42 47.4273 114.553 46.7365C114.626 46.3552 115.438 42.2541 116.358 37.6223L118.03 29.2011L123.422 29.3068C128.445 29.4053 128.918 29.4651 130.347 30.1824Z" fill="white"/>
</svg>
