<svg width="86" height="85" viewBox="0 0 86 85" fill="none" xmlns="http://www.w3.org/2000/svg">
<path fill-rule="evenodd" clip-rule="evenodd" d="M30.9078 0.279201C26.576 1.36267 23.181 4.60308 21.7087 9.05918C21.3444 10.162 21.3349 10.3528 21.2801 17.7834L21.2242 25.3803L16.0398 25.4508C10.1075 25.5317 9.49245 25.6225 7.16414 26.761C3.73448 28.438 1.22754 31.5112 0.301276 35.1744C-0.0184325 36.4385 -0.0276132 36.8308 0.0229603 47.0908C0.0735339 57.3838 0.0852914 57.7312 0.416113 58.7469C0.920882 60.2966 1.23189 60.9621 2.02529 62.1891C3.7749 64.8954 6.1852 66.641 9.53561 67.6285C10.5824 67.9369 11.2026 67.9775 15.951 68.0467L21.2076 68.1234L21.2893 71.3674C21.3822 75.0588 21.5183 75.7409 22.6119 77.9938C24.2124 81.2906 27.2641 83.7666 30.8606 84.6864C32.0136 84.9813 32.7083 85 42.5042 85C52.43 85 52.9818 84.9847 54.1957 84.6745C58.6776 83.5295 62.294 79.9132 63.4389 75.4313C63.7421 74.2451 63.7644 73.6548 63.7644 66.8679V59.5786L69.1198 59.5093C74.869 59.4349 75.1639 59.3979 77.3742 58.4731C80.365 57.2218 83.0183 54.4694 84.2603 51.3299C85.0991 49.2099 85.1057 49.106 85.0992 38.1309C85.0934 28.0439 85.0884 27.8857 84.7331 26.615C83.2675 21.3713 79.2235 17.7583 74.0206 17.0437C73.3275 16.9485 70.7438 16.8707 68.2789 16.8707H63.797L63.7266 13.5287C63.6474 9.77204 63.4876 9.01038 62.2991 6.72378C60.7104 3.66698 57.8564 1.32755 54.5034 0.333479C53.6251 0.0730411 52.5605 0.0437278 42.8264 0.0119986C32.8201 -0.0206971 32.0363 -0.00314131 30.9078 0.279201ZM52.8994 8.8767C53.8129 9.30206 54.4749 10.0033 54.9717 11.0725C55.3037 11.7866 55.3087 11.967 55.3087 23.3132C55.3087 34.6594 55.3037 34.8398 54.9717 35.5539C54.5122 36.5425 53.8664 37.2712 53.0738 37.6951C52.4149 38.0475 52.3287 38.0512 42.3432 38.1422C32.77 38.2295 32.2137 38.2507 30.9883 38.5746C27.3035 39.5486 24.3855 41.851 22.6693 45.1382C21.3946 47.5795 21.3508 47.8608 21.2808 54.0464L21.2181 59.5736L16.4394 59.5174C12.3447 59.4692 11.5753 59.4217 11.0628 59.1849C10.1404 58.7586 9.3119 57.9441 8.89877 57.0568L8.52334 56.2504L8.52173 46.7271C8.51996 36.1643 8.47663 36.6211 9.60004 35.3775C9.9241 35.0189 10.4841 34.5674 10.8446 34.3746L11.4998 34.0238L27.6105 33.9433L43.7211 33.8628L44.5204 33.4512C45.4981 32.9481 46.2829 31.9563 46.6194 30.7987C47.1858 28.8499 46.1212 26.6444 44.1954 25.7776C43.6133 25.5155 42.8872 25.4829 36.6657 25.4392L29.7803 25.391V18.6546C29.7803 11.2712 29.794 11.1478 30.7481 9.94309C31.017 9.60373 31.6119 9.13923 32.0703 8.91084L32.9038 8.49547L42.4955 8.49708L52.0874 8.49869L52.8994 8.8767ZM36.7865 12.9601C35.3262 13.5502 34.2355 14.9214 34.0291 16.4265C33.8141 17.9957 34.7594 19.8449 36.1681 20.6109C38.311 21.7758 40.7429 21.0989 41.9809 18.9929C42.3652 18.3391 42.4234 18.0696 42.421 16.9512C42.4187 15.9375 42.3427 15.5205 42.0641 14.9955C41.0814 13.1436 38.6513 12.2063 36.7865 12.9601ZM74.0724 25.8249C74.9874 26.251 75.7869 27.0524 76.2268 27.984C76.5636 28.6975 76.5689 28.8569 76.5689 38.292V47.8752L76.0722 48.761C75.5323 49.7237 74.4775 50.566 73.4567 50.8495C73.0726 50.9563 67.4183 51.0144 57.3683 51.0149C42.1739 51.0159 41.855 51.0223 40.9952 51.344C39.2691 51.9898 38.2032 53.6966 38.354 55.5735C38.4824 57.173 39.2173 58.2899 40.6327 59.0366L41.4573 59.4716L48.4326 59.5198L55.4081 59.5681L55.3583 66.4455L55.3087 73.323L54.8761 74.1428C54.6382 74.5938 54.1825 75.1918 53.8635 75.4719C52.6959 76.497 53.0781 76.4637 42.4793 76.4637H32.8299L32.0461 76.0665C31.1101 75.5922 30.363 74.734 30.0264 73.7463C29.6656 72.6874 29.6558 50.6039 30.0156 49.584C30.3487 48.64 30.9997 47.8489 31.859 47.3437L32.5989 46.9088L42.6653 46.8155C52.364 46.7258 52.7787 46.7096 54.0202 46.37C58.868 45.0448 62.3302 41.5768 63.4517 36.9229C63.7239 35.7936 63.7624 35.0164 63.7633 30.6281C63.764 27.8746 63.8176 25.5687 63.8825 25.5038C63.9474 25.4389 66.1036 25.4086 68.6741 25.4366C73.02 25.484 73.3984 25.5112 74.0724 25.8249ZM45.677 63.9633C44.6021 64.2608 43.6523 64.998 43.1122 65.9539C41.5021 68.8037 43.5238 72.2693 46.7993 72.2745C48.59 72.2774 49.9131 71.4081 50.6852 69.7213C51.0156 68.9999 51.0681 68.6875 51.0004 67.8451C50.9059 66.6669 50.3808 65.5025 49.6749 64.9056C48.5784 63.9785 46.9818 63.6022 45.677 63.9633Z" fill="white"/>
</svg>
