<svg width="85" height="85" viewBox="0 0 85 85" fill="none" xmlns="http://www.w3.org/2000/svg">
<path d="M37.8082 0.110632C27.9857 1.3759 19.1954 5.63785 12.3696 12.4969C6.37628 18.5569 2.48059 25.7489 0.649281 34.2062C-0.216427 38.1685 -0.216427 46.8922 0.649281 50.8545C4.31189 67.869 17.131 80.6881 34.1455 84.3507C38.1078 85.2164 46.8315 85.2164 50.7938 84.3507C59.2511 82.5194 66.4431 78.6237 72.5031 72.6304C78.4632 66.6703 82.4587 59.3118 84.29 50.8545C85.1557 46.8922 85.1557 38.1685 84.29 34.2062C80.6607 17.3915 68.1412 4.67225 51.4597 0.876451C48.6961 0.243818 40.4386 -0.222333 37.8082 0.110632ZM48.6628 5.73774C56.4542 7.0696 63.2134 10.599 68.8072 16.1928C75.8993 23.285 79.7617 32.5414 79.7617 42.5303C79.7617 52.5193 75.8993 61.7757 68.8072 68.8679C61.715 75.96 52.4586 79.8224 42.4697 79.8224C32.4807 79.8224 23.2243 75.96 16.1321 68.8679C9.03999 61.7757 5.1776 52.5193 5.1776 42.5303C5.1776 26.3483 15.6327 11.9975 31.1489 6.96971C36.3098 5.27159 43.1689 4.80544 48.6628 5.73774Z" fill="white"/>
<path d="M37.2732 9.40031C30.4807 10.4325 24.1877 13.5624 19.2265 18.3571C17.1288 20.3549 14.3319 23.851 14.6316 24.1174C14.7315 24.2172 17.2287 24.1839 20.1588 24.0175C23.1222 23.851 25.8192 23.8177 26.1855 23.9509C27.0179 24.2838 27.0179 25.7489 26.1855 26.215C25.8192 26.3815 24.9535 26.548 24.2543 26.5813C21.6571 26.6146 21.4241 25.4159 28.0168 45.0275C31.3464 54.9166 34.1766 62.7746 34.2765 62.5082C34.3764 62.2418 36.0412 57.3139 37.9724 51.5537L41.4685 41.0653L38.9047 34.073C37.5063 30.2106 36.3409 26.9809 36.2743 26.9143C36.241 26.881 35.2754 26.7145 34.1433 26.5813C33.0445 26.4481 31.979 26.1817 31.7793 25.982C31.2465 25.4492 31.6794 23.9509 32.3786 23.8177C32.6783 23.7511 34.9091 23.851 37.3731 23.9842C39.8037 24.1174 43.8326 24.1174 46.2965 23.9842C51.3576 23.6845 52.1234 23.8177 52.1234 25.0164C52.1234 26.0818 51.2577 26.548 49.3931 26.548C48.594 26.548 47.7949 26.6812 47.5951 26.8144C47.3287 26.9809 49.0934 32.608 53.089 44.5947C56.3188 54.2174 59.0491 62.2085 59.149 62.3084C59.3487 62.5082 63.8105 48.0242 64.6762 44.5281C64.9093 43.5292 65.109 41.8311 65.109 40.7989C65.109 37.2029 64.4764 35.3716 60.8471 28.8122C58.5496 24.7167 58.6162 21.7533 60.9803 19.356C61.7461 18.6234 62.5785 18.1573 63.4442 18.0241C64.1767 17.8909 64.7761 17.6911 64.7761 17.5912C64.7761 17.1251 60.1146 13.862 57.8504 12.73C51.4242 9.46691 44.2987 8.30153 37.2732 9.40031Z" fill="white"/>
<path d="M72.0021 30.7766C71.9022 33.0408 71.536 35.6712 71.1697 37.0364C70.8035 38.3016 68.0399 46.5592 64.9766 55.3161C61.9466 64.1064 59.4827 71.2984 59.516 71.365C59.7157 71.5315 62.9122 69.2008 64.8101 67.5359C69.7713 63.1408 73.334 57.214 75.132 50.3217C76.2308 46.093 76.2308 38.9676 75.132 34.7722C74.4994 32.3083 72.7014 27.3804 72.3018 26.9808C72.2352 26.9142 72.102 28.6124 72.0021 30.7766Z" fill="white"/>
<path d="M10.5425 32.3416C8.31165 39.2673 8.37824 46.193 10.6757 53.0853C12.84 59.5782 16.6358 65.0055 21.83 69.0011C23.6946 70.4328 27.4571 72.6637 27.6236 72.4639C27.7235 72.2974 12.3405 30.2107 11.9077 29.5447C11.6746 29.1785 11.3416 29.8777 10.5425 32.3416Z" fill="white"/>
<path d="M37.9756 60.2108C34.0133 71.6981 33.1476 74.6282 33.5139 74.8279C35.5783 76.1265 45.9668 76.3596 50.2953 75.1942C51.7271 74.7946 53.0589 74.3618 53.1921 74.2286C53.4585 73.9622 43.7026 46.6591 43.1699 46.0931C43.0367 45.9599 40.7059 52.2862 37.9756 60.2108Z" fill="white"/>
</svg>
